<svg xmlns="http://www.w3.org/2000/svg" width="1080" height="1080" viewBox="0 0 1080 1080" role="img" aria-label="Filmpilot"><rect width="1080" height="1080" fill="#141414"/><g transform="translate(55 48) scale(.42)"><g transform="translate(20 20)"><g fill="#F5F4EF"><path d="M 32,72 C 15,59 22,41 43,24 C 63,8 89,6 79,28 C 72,43 53,57 51,73 C 51,85 44,83 32,72 Z"/><path d="M 113,19 C 114,10 135,-2 144,0 C 159,2 135,23 120,24 C 114,25 110,24 113,19 Z"/><path d="M 97,47 C 112,37 140,53 157,66 C 173,78 183,99 167,99 C 156,99 130,80 113,70 C 97,60 91,53 97,47 Z"/><path d="M 2,81 C 12,66 36,91 58,102 C 74,110 94,115 85,124 C 75,137 43,135 23,122 C 8,112 -5,95 2,81 Z"/><path d="M 80,167 C 65,157 95,123 109,103 C 117,92 118,83 126,90 C 147,106 148,126 132,145 C 116,164 88,174 80,167 Z"/></g></g><g transform="translate(226 37)"><g fill="#F5F4EF"><g fill-rule="evenodd">
<path d="M15 125V61H0V49H15V36C15 13 28 2 47 2H65L58 16H48C34 16 30 22 30 39V49H62V61H30V125Z"/>
<path d="M75 49H90V125H75Z M112 22H127V125H112Z"/>
<path d="M73 16C72 6 89 -4 97 1C109 9 87 26 78 24C73 23 71 20 73 16Z"/>
<path d="M138 125V49H153V60C165 43 190 43 206 60C222 42 251 42 262 61C265 66 266 74 266 84V125H251V83C251 67 244 61 232 61C220 61 211 69 211 82V125H196V83C196 68 188 61 177 61C164 61 153 70 153 83V125Z"/>
<path d="M277 155V49H292V60C300 51 310 47 323 47C347 47 364 64 364 87C364 111 347 127 323 127C310 127 300 123 292 114V155Z M350 87C350 71 338 60 322 60C305 60 292 71 292 87C292 103 305 114 322 114C338 114 350 103 350 87Z"/>
<path d="M371 50H386V125H371Z M397 2H412V125H397Z"/>
<circle cx="378.5" cy="29.5" r="9.5"/>
<path d="M509 87C509 110 491 127 465 127C439 127 421 110 421 87C421 64 439 47 465 47C491 47 509 64 509 87Z M494 87C494 71 482 60 465 60C448 60 436 71 436 87C436 103 448 114 465 114C482 114 494 103 494 87Z"/>
<path d="M523 28H538V49H562V62H538V99C538 111 546 114 562 112V125C537 130 523 120 523 102V62H508V49H523Z"/>
</g></g></g></g><g transform="translate(710 200) scale(1.45)"><g fill="#FFE24A"><path d="M 32,72 C 15,59 22,41 43,24 C 63,8 89,6 79,28 C 72,43 53,57 51,73 C 51,85 44,83 32,72 Z"/><path d="M 113,19 C 114,10 135,-2 144,0 C 159,2 135,23 120,24 C 114,25 110,24 113,19 Z"/><path d="M 97,47 C 112,37 140,53 157,66 C 173,78 183,99 167,99 C 156,99 130,80 113,70 C 97,60 91,53 97,47 Z"/><path d="M 2,81 C 12,66 36,91 58,102 C 74,110 94,115 85,124 C 75,137 43,135 23,122 C 8,112 -5,95 2,81 Z"/><path d="M 80,167 C 65,157 95,123 109,103 C 117,92 118,83 126,90 C 147,106 148,126 132,145 C 116,164 88,174 80,167 Z"/></g></g><g fill="#F5F4EF" transform="translate(68 400) scale(1)"><g transform="translate(-9.03000 75.60000)"><path d="M9.03 0.0V-75.6H17.64V0.0ZM13.44 0.0V-7.56H56.489999999999995V0.0Z"/><path d="M67.305 0.0V-53.55H75.705V0.0ZM66.675 -65.73V-75.6H76.335V-65.73Z"/><path d="M118.965 0.945Q111.405 0.945 106.26 -2.7299999999999995Q101.11500000000001 -6.404999999999999 99.22500000000001 -13.125L100.38 -13.334999999999999V0.0H92.50500000000001V-75.6H100.905V-41.055L99.75 -41.37Q101.745 -47.565 107.0475 -51.082499999999996Q112.35 -54.6 119.7 -54.6Q126.84 -54.6 132.14249999999998 -51.135000000000005Q137.445 -47.67 140.385 -41.475Q143.325 -35.28 143.325 -26.985Q143.325 -18.585 140.28 -12.285Q137.235 -5.984999999999999 131.775 -2.5199999999999996Q126.315 0.945 118.965 0.945ZM117.70500000000001 -6.404999999999999Q125.685 -6.404999999999999 130.2 -11.9175Q134.715 -17.43 134.715 -26.985Q134.715 -36.434999999999995 130.2 -41.8425Q125.685 -47.25 117.70500000000001 -47.25Q109.725 -47.25 105.10499999999999 -41.7375Q100.485 -36.225 100.485 -26.669999999999998Q100.485 -17.325 105.10499999999999 -11.864999999999998Q109.725 -6.404999999999999 117.70500000000001 -6.404999999999999Z"/><path d="M178.07999999999998 1.05Q170.415 1.05 164.53499999999997 -2.5725Q158.65499999999997 -6.194999999999999 155.29499999999996 -12.495Q151.93499999999997 -18.794999999999998 151.93499999999997 -26.985Q151.93499999999997 -35.175 155.24249999999998 -41.4225Q158.54999999999998 -47.67 164.53499999999997 -51.135000000000005Q170.51999999999998 -54.6 178.29 -54.6Q185.74499999999998 -54.6 191.2575 -51.345Q196.76999999999998 -48.089999999999996 199.7625 -42.209999999999994Q202.755 -36.33 202.755 -28.349999999999998Q202.755 -27.3 202.7025 -26.355Q202.64999999999998 -25.41 202.44 -24.255H158.23499999999999V-31.29H197.295L194.565 -27.404999999999998Q194.565 -37.065 190.3125 -42.2625Q186.05999999999997 -47.46 178.29 -47.46Q170.30999999999997 -47.46 165.42749999999998 -41.9475Q160.545 -36.434999999999995 160.545 -27.09Q160.545 -17.535 165.42749999999998 -11.8125Q170.30999999999997 -6.09 178.5 -6.09Q183.64499999999998 -6.09 187.52999999999997 -8.3475Q191.415 -10.605 193.2 -14.805H201.17999999999998Q198.55499999999998 -7.455 192.41249999999997 -3.2025Q186.26999999999998 1.05 178.07999999999998 1.05Z"/><path d="M215.355 0.0V-53.55H223.23V-39.9H223.755V0.0ZM223.755 -27.93 222.39 -40.635Q224.27999999999997 -47.46 229.10999999999999 -51.03Q233.94 -54.6 240.23999999999998 -54.6Q242.86499999999998 -54.6 243.80999999999997 -54.18V-46.095Q243.28499999999997 -46.305 242.33999999999997 -46.3575Q241.39499999999998 -46.41 240.02999999999997 -46.41Q232.04999999999998 -46.41 227.90249999999997 -41.63249999999999Q223.755 -36.855 223.755 -27.93Z"/><path d="M277.41 0.945Q268.485 0.945 264.4425 -3.0974999999999997Q260.4 -7.14 260.4 -14.805V-66.045L268.8 -69.195V-14.91Q268.8 -10.395 271.11 -8.295Q273.42 -6.194999999999999 278.67 -6.194999999999999Q280.77 -6.194999999999999 282.2925 -6.4575Q283.815 -6.72 284.76 -7.14V0.0Q283.71 0.42 281.7675 0.6825Q279.825 0.945 277.41 0.945ZM249.375 -46.41V-53.55H284.76V-46.41Z"/><path d="M328.44 0.0Q328.02 -1.785 327.8625 -4.095Q327.70500000000004 -6.404999999999999 327.70500000000004 -9.975H327.18V-35.595Q327.18 -41.684999999999995 324.39750000000004 -44.5725Q321.615 -47.46 315.42 -47.46Q309.33 -47.46 305.7075 -44.9925Q302.08500000000004 -42.525 301.665 -38.01H293.58Q294.105 -45.78 300.09000000000003 -50.19Q306.075 -54.6 315.735 -54.6Q325.71000000000004 -54.6 330.54 -49.875Q335.37 -45.15 335.37 -35.699999999999996V-9.975Q335.37 -7.665 335.685 -5.1975Q336.0 -2.73 336.52500000000003 0.0ZM310.065 1.05Q301.77 1.05 296.8875 -2.9925Q292.005 -7.035 292.005 -14.07Q292.005 -21.105 296.83500000000004 -24.990000000000002Q301.665 -28.875 310.90500000000003 -30.45L329.595 -33.6V-26.669999999999998L312.165 -23.939999999999998Q306.285 -22.994999999999997 303.24 -20.79Q300.195 -18.585 300.195 -14.385Q300.195 -10.29 302.97749999999996 -8.19Q305.76 -6.09 311.22 -6.09Q318.255 -6.09 322.7175 -9.2925Q327.18 -12.495 327.18 -17.64L328.545 -10.185Q326.865 -4.83 321.9825 -1.8900000000000001Q317.1 1.05 310.065 1.05Z"/><path d="M390.495 0.0V-12.495L391.54499999999996 -12.18Q389.54999999999995 -6.09 384.24749999999995 -2.52Q378.945 1.05 371.59499999999997 1.05Q364.34999999999997 1.05 358.9425 -2.415Q353.53499999999997 -5.88 350.5425 -12.075Q347.55 -18.27 347.55 -26.564999999999998Q347.55 -34.964999999999996 350.595 -41.265Q353.64 -47.565 359.1 -51.03Q364.56 -54.495 371.90999999999997 -54.495Q379.46999999999997 -54.495 384.615 -50.81999999999999Q389.76 -47.144999999999996 391.65 -40.425L389.96999999999997 -40.214999999999996V-75.6H398.37V0.0ZM373.16999999999996 -6.3Q381.255 -6.3 385.8225 -11.8125Q390.39 -17.325 390.39 -26.88Q390.39 -36.225 385.77 -41.685Q381.15 -47.144999999999996 373.16999999999996 -47.144999999999996Q365.19 -47.144999999999996 360.67499999999995 -41.685Q356.15999999999997 -36.225 356.15999999999997 -26.564999999999998Q356.15999999999997 -17.115 360.67499999999995 -11.7075Q365.19 -6.3 373.16999999999996 -6.3Z"/></g></g><g fill="#F5F4EF" transform="translate(68 514) scale(1)"><g transform="translate(-8.40000 54.60000)"><path d="M34.86 0.945Q27.3 0.945 22.155 -2.7299999999999995Q17.009999999999998 -6.404999999999999 15.12 -13.125L16.8 -13.334999999999999V21.525H8.4V-53.55H16.275V-41.055L15.12 -41.37Q17.115 -47.565 22.68 -51.082499999999996Q28.244999999999997 -54.6 35.595 -54.6Q42.735 -54.6 48.037499999999994 -51.135000000000005Q53.339999999999996 -47.67 56.28 -41.475Q59.22 -35.28 59.22 -26.985Q59.22 -18.585 56.175 -12.285Q53.129999999999995 -5.984999999999999 47.67 -2.5199999999999996Q42.21 0.945 34.86 0.945ZM33.6 -6.404999999999999Q41.58 -6.404999999999999 46.095 -11.9175Q50.61 -17.43 50.61 -26.985Q50.61 -36.434999999999995 46.095 -41.8425Q41.58 -47.25 33.6 -47.25Q25.619999999999997 -47.25 21.0 -41.7375Q16.38 -36.225 16.38 -26.669999999999998Q16.38 -17.325 21.0 -11.864999999999998Q25.619999999999997 -6.404999999999999 33.6 -6.404999999999999Z"/><path d="M105.10499999999999 0.0Q104.685 -1.785 104.5275 -4.095Q104.37 -6.404999999999999 104.37 -9.975H103.845V-35.595Q103.845 -41.684999999999995 101.0625 -44.5725Q98.28 -47.46 92.085 -47.46Q85.99499999999999 -47.46 82.3725 -44.9925Q78.75 -42.525 78.33 -38.01H70.24499999999999Q70.77 -45.78 76.755 -50.19Q82.74 -54.6 92.39999999999999 -54.6Q102.375 -54.6 107.205 -49.875Q112.035 -45.15 112.035 -35.699999999999996V-9.975Q112.035 -7.665 112.35 -5.1975Q112.66499999999999 -2.73 113.19 0.0ZM86.72999999999999 1.05Q78.435 1.05 73.55250000000001 -2.9925Q68.67 -7.035 68.67 -14.07Q68.67 -21.105 73.5 -24.990000000000002Q78.33 -28.875 87.57 -30.45L106.25999999999999 -33.6V-26.669999999999998L88.83 -23.939999999999998Q82.94999999999999 -22.994999999999997 79.905 -20.79Q76.86 -18.585 76.86 -14.385Q76.86 -10.29 79.6425 -8.19Q82.425 -6.09 87.88499999999999 -6.09Q94.91999999999999 -6.09 99.3825 -9.2925Q103.845 -12.495 103.845 -17.64L105.21 -10.185Q103.53 -4.83 98.6475 -1.8900000000000001Q93.76499999999999 1.05 86.72999999999999 1.05Z"/><path d="M128.20499999999998 0.0V-53.55H136.07999999999998V-39.9H136.605V0.0ZM136.605 -27.93 135.23999999999998 -40.635Q137.13 -47.46 141.95999999999998 -51.03Q146.79 -54.6 153.08999999999997 -54.6Q155.71499999999997 -54.6 156.66 -54.18V-46.095Q156.135 -46.305 155.19 -46.3575Q154.245 -46.41 152.88 -46.41Q144.89999999999998 -46.41 140.7525 -41.63249999999999Q136.605 -36.855 136.605 -27.93Z"/><path d="M198.87 0.0Q198.45 -1.785 198.2925 -4.095Q198.135 -6.404999999999999 198.135 -9.975H197.60999999999999V-35.595Q197.60999999999999 -41.684999999999995 194.8275 -44.5725Q192.045 -47.46 185.85 -47.46Q179.76 -47.46 176.1375 -44.9925Q172.515 -42.525 172.095 -38.01H164.01Q164.535 -45.78 170.51999999999998 -50.19Q176.505 -54.6 186.165 -54.6Q196.14 -54.6 200.96999999999997 -49.875Q205.79999999999998 -45.15 205.79999999999998 -35.699999999999996V-9.975Q205.79999999999998 -7.665 206.11499999999998 -5.1975Q206.42999999999998 -2.73 206.95499999999998 0.0ZM180.495 1.05Q172.2 1.05 167.3175 -2.9925Q162.435 -7.035 162.435 -14.07Q162.435 -21.105 167.265 -24.990000000000002Q172.095 -28.875 181.33499999999998 -30.45L200.02499999999998 -33.6V-26.669999999999998L182.595 -23.939999999999998Q176.71499999999997 -22.994999999999997 173.67 -20.79Q170.625 -18.585 170.625 -14.385Q170.625 -10.29 173.4075 -8.19Q176.19 -6.09 181.64999999999998 -6.09Q188.685 -6.09 193.14749999999998 -9.2925Q197.60999999999999 -12.495 197.60999999999999 -17.64L198.975 -10.185Q197.295 -4.83 192.41249999999997 -1.8900000000000001Q187.52999999999997 1.05 180.495 1.05Z"/><path d=""/><path d="M264.18 1.05Q256.83 1.05 251.1075 -2.5725Q245.385 -6.194999999999999 242.0775 -12.5475Q238.76999999999998 -18.9 238.76999999999998 -26.985Q238.76999999999998 -35.07 242.0775 -41.265Q245.385 -47.46 251.1075 -51.03Q256.83 -54.6 264.075 -54.6Q270.06 -54.6 274.8375 -52.29Q279.615 -49.98 282.7125 -45.7275Q285.81 -41.475 286.65 -35.805H278.88Q277.83 -40.949999999999996 274.04999999999995 -44.205Q270.27 -47.46 264.28499999999997 -47.46Q259.14 -47.46 255.35999999999999 -44.94Q251.57999999999998 -42.42 249.48 -37.8Q247.38 -33.18 247.38 -26.985Q247.38 -20.79 249.48 -16.064999999999998Q251.57999999999998 -11.34 255.4125 -8.715Q259.245 -6.09 264.39 -6.09Q270.16499999999996 -6.09 274.04999999999995 -9.2925Q277.935 -12.495 278.985 -17.64H286.755Q285.81 -12.075 282.60749999999996 -7.8225Q279.405 -3.57 274.67999999999995 -1.2599999999999998Q269.955 1.05 264.18 1.05Z"/><path d="M298.93499999999995 0.0V-53.55H306.80999999999995V-39.9H307.335V0.0ZM307.335 -27.93 305.96999999999997 -40.635Q307.85999999999996 -47.46 312.68999999999994 -51.03Q317.52 -54.6 323.81999999999994 -54.6Q326.44499999999994 -54.6 327.39 -54.18V-46.095Q326.86499999999995 -46.305 325.91999999999996 -46.3575Q324.97499999999997 -46.41 323.60999999999996 -46.41Q315.63 -46.41 311.48249999999996 -41.63249999999999Q307.335 -36.855 307.335 -27.93Z"/><path d="M358.365 1.05Q350.7 1.05 344.82 -2.5725Q338.94 -6.194999999999999 335.58 -12.495Q332.21999999999997 -18.794999999999998 332.21999999999997 -26.985Q332.21999999999997 -35.175 335.5275 -41.4225Q338.835 -47.67 344.82 -51.135000000000005Q350.805 -54.6 358.575 -54.6Q366.03 -54.6 371.54249999999996 -51.345Q377.05499999999995 -48.089999999999996 380.04749999999996 -42.209999999999994Q383.03999999999996 -36.33 383.03999999999996 -28.349999999999998Q383.03999999999996 -27.3 382.98749999999995 -26.355Q382.935 -25.41 382.72499999999997 -24.255H338.52V-31.29H377.58L374.84999999999997 -27.404999999999998Q374.84999999999997 -37.065 370.59749999999997 -42.2625Q366.34499999999997 -47.46 358.575 -47.46Q350.59499999999997 -47.46 345.7125 -41.9475Q340.83 -36.434999999999995 340.83 -27.09Q340.83 -17.535 345.7125 -11.8125Q350.59499999999997 -6.09 358.78499999999997 -6.09Q363.92999999999995 -6.09 367.81499999999994 -8.3475Q371.7 -10.605 373.48499999999996 -14.805H381.465Q378.84 -7.455 372.6975 -3.2025Q366.55499999999995 1.05 358.365 1.05Z"/><path d="M428.19 0.0Q427.77 -1.785 427.6125 -4.095Q427.45500000000004 -6.404999999999999 427.45500000000004 -9.975H426.93V-35.595Q426.93 -41.684999999999995 424.14750000000004 -44.5725Q421.365 -47.46 415.17 -47.46Q409.08 -47.46 405.4575 -44.9925Q401.83500000000004 -42.525 401.415 -38.01H393.33Q393.855 -45.78 399.84000000000003 -50.19Q405.825 -54.6 415.485 -54.6Q425.46000000000004 -54.6 430.29 -49.875Q435.12 -45.15 435.12 -35.699999999999996V-9.975Q435.12 -7.665 435.435 -5.1975Q435.75 -2.73 436.27500000000003 0.0ZM409.815 1.05Q401.52 1.05 396.6375 -2.9925Q391.755 -7.035 391.755 -14.07Q391.755 -21.105 396.58500000000004 -24.990000000000002Q401.415 -28.875 410.65500000000003 -30.45L429.345 -33.6V-26.669999999999998L411.915 -23.939999999999998Q406.035 -22.994999999999997 402.99 -20.79Q399.945 -18.585 399.945 -14.385Q399.945 -10.29 402.72749999999996 -8.19Q405.51 -6.09 410.97 -6.09Q418.005 -6.09 422.4675 -9.2925Q426.93 -12.495 426.93 -17.64L428.295 -10.185Q426.615 -4.83 421.7325 -1.8900000000000001Q416.85 1.05 409.815 1.05Z"/><path d="M451.28999999999996 0.0V-53.55H459.16499999999996V-39.9H459.69V0.0ZM459.69 -27.93 458.325 -40.635Q460.215 -47.46 465.04499999999996 -51.03Q469.875 -54.6 476.17499999999995 -54.6Q478.79999999999995 -54.6 479.745 -54.18V-46.095Q479.21999999999997 -46.305 478.275 -46.3575Q477.33 -46.41 475.965 -46.41Q467.985 -46.41 463.8375 -41.63249999999999Q459.69 -36.855 459.69 -27.93Z"/><path d="M479.64 0.0V-10.815H490.455V0.0Z"/></g></g><g fill="#FFE24A" transform="translate(68 706) scale(1)"><g transform="translate(-5.25000 76.65000)"><path d="M41.055 1.05Q33.285 1.05 26.722499999999997 -1.8375Q20.16 -4.725 15.33 -9.9225Q10.5 -15.12 7.875 -22.2075Q5.25 -29.294999999999998 5.25 -37.8Q5.25 -46.305 7.875 -53.3925Q10.5 -60.48 15.2775 -65.6775Q20.055 -70.875 26.6175 -73.76249999999999Q33.18 -76.64999999999999 40.949999999999996 -76.64999999999999Q49.455 -76.64999999999999 56.2275 -73.185Q63.0 -69.72 67.3575 -63.42Q71.715 -57.12 72.765 -48.72H64.155Q62.894999999999996 -58.065 56.7525 -63.4725Q50.61 -68.88 41.055 -68.88Q32.97 -68.88 26.88 -64.9425Q20.79 -61.004999999999995 17.43 -54.022499999999994Q14.07 -47.04 14.07 -37.8Q14.07 -28.56 17.43 -21.5775Q20.79 -14.594999999999999 26.88 -10.657499999999999Q32.97 -6.72 40.949999999999996 -6.72Q50.714999999999996 -6.72 56.9625 -12.18Q63.21 -17.64 64.365 -26.88H72.975Q71.925 -18.48 67.5675 -12.18Q63.21 -5.88 56.4375 -2.415Q49.665 1.05 41.055 1.05Z"/><path d="M86.205 0.0V-75.6H94.60499999999999V0.0Z"/><path d="M144.26999999999998 0.0Q143.85 -1.785 143.6925 -4.095Q143.535 -6.404999999999999 143.535 -9.975H143.01V-35.595Q143.01 -41.684999999999995 140.2275 -44.5725Q137.445 -47.46 131.25 -47.46Q125.16 -47.46 121.5375 -44.9925Q117.91499999999999 -42.525 117.49499999999999 -38.01H109.41Q109.935 -45.78 115.92 -50.19Q121.905 -54.6 131.565 -54.6Q141.54 -54.6 146.37 -49.875Q151.2 -45.15 151.2 -35.699999999999996V-9.975Q151.2 -7.665 151.515 -5.1975Q151.82999999999998 -2.73 152.355 0.0ZM125.895 1.05Q117.6 1.05 112.7175 -2.9925Q107.835 -7.035 107.835 -14.07Q107.835 -21.105 112.66499999999999 -24.990000000000002Q117.49499999999999 -28.875 126.735 -30.45L145.425 -33.6V-26.669999999999998L127.99499999999999 -23.939999999999998Q122.115 -22.994999999999997 119.07 -20.79Q116.02499999999999 -18.585 116.02499999999999 -14.385Q116.02499999999999 -10.29 118.8075 -8.19Q121.59 -6.09 127.05 -6.09Q134.08499999999998 -6.09 138.54749999999999 -9.2925Q143.01 -12.495 143.01 -17.64L144.375 -10.185Q142.695 -4.83 137.8125 -1.8900000000000001Q132.93 1.05 125.895 1.05Z"/><path d="M167.37 0.0V-53.55H175.245V-39.9H175.77V0.0ZM175.77 -27.93 174.405 -40.635Q176.295 -47.46 181.125 -51.03Q185.95499999999998 -54.6 192.255 -54.6Q194.88 -54.6 195.825 -54.18V-46.095Q195.3 -46.305 194.35500000000002 -46.3575Q193.41 -46.41 192.045 -46.41Q184.065 -46.41 179.91750000000002 -41.63249999999999Q175.77 -36.855 175.77 -27.93Z"/><path d="M205.8 0.0V-53.55H214.20000000000002V0.0ZM205.17000000000002 -65.73V-75.6H214.83V-65.73Z"/><path d="M269.745 0.0V-12.495L270.79499999999996 -12.18Q268.79999999999995 -6.09 263.49749999999995 -2.52Q258.195 1.05 250.84499999999997 1.05Q243.6 1.05 238.1925 -2.415Q232.785 -5.88 229.7925 -12.075Q226.79999999999998 -18.27 226.79999999999998 -26.564999999999998Q226.79999999999998 -34.964999999999996 229.84499999999997 -41.265Q232.89 -47.565 238.34999999999997 -51.03Q243.80999999999997 -54.495 251.16 -54.495Q258.71999999999997 -54.495 263.865 -50.81999999999999Q269.01 -47.144999999999996 270.9 -40.425L269.21999999999997 -40.214999999999996V-75.6H277.62V0.0ZM252.42 -6.3Q260.505 -6.3 265.0725 -11.8125Q269.64 -17.325 269.64 -26.88Q269.64 -36.225 265.02 -41.685Q260.4 -47.144999999999996 252.42 -47.144999999999996Q244.44 -47.144999999999996 239.925 -41.685Q235.41 -36.225 235.41 -26.564999999999998Q235.41 -17.115 239.925 -11.7075Q244.44 -6.3 252.42 -6.3Z"/><path d="M327.28499999999997 0.0Q326.865 -1.785 326.7075 -4.095Q326.54999999999995 -6.404999999999999 326.54999999999995 -9.975H326.025V-35.595Q326.025 -41.684999999999995 323.24249999999995 -44.5725Q320.46 -47.46 314.265 -47.46Q308.17499999999995 -47.46 304.5525 -44.9925Q300.93 -42.525 300.51 -38.01H292.42499999999995Q292.95 -45.78 298.93499999999995 -50.19Q304.91999999999996 -54.6 314.58 -54.6Q324.55499999999995 -54.6 329.385 -49.875Q334.215 -45.15 334.215 -35.699999999999996V-9.975Q334.215 -7.665 334.53 -5.1975Q334.84499999999997 -2.73 335.37 0.0ZM308.90999999999997 1.05Q300.615 1.05 295.73249999999996 -2.9925Q290.84999999999997 -7.035 290.84999999999997 -14.07Q290.84999999999997 -21.105 295.67999999999995 -24.990000000000002Q300.51 -28.875 309.75 -30.45L328.44 -33.6V-26.669999999999998L311.01 -23.939999999999998Q305.13 -22.994999999999997 302.085 -20.79Q299.03999999999996 -18.585 299.03999999999996 -14.385Q299.03999999999996 -10.29 301.8225 -8.19Q304.60499999999996 -6.09 310.065 -6.09Q317.09999999999997 -6.09 321.5625 -9.2925Q326.025 -12.495 326.025 -17.64L327.39 -10.185Q325.71 -4.83 320.8275 -1.8900000000000001Q315.945 1.05 308.90999999999997 1.05Z"/><path d="M389.34000000000003 0.0V-12.495L390.39 -12.18Q388.395 -6.09 383.0925 -2.52Q377.79 1.05 370.44 1.05Q363.195 1.05 357.7875 -2.415Q352.38 -5.88 349.38750000000005 -12.075Q346.39500000000004 -18.27 346.39500000000004 -26.564999999999998Q346.39500000000004 -34.964999999999996 349.44000000000005 -41.265Q352.485 -47.565 357.94500000000005 -51.03Q363.40500000000003 -54.495 370.755 -54.495Q378.315 -54.495 383.46000000000004 -50.81999999999999Q388.605 -47.144999999999996 390.495 -40.425L388.815 -40.214999999999996V-75.6H397.21500000000003V0.0ZM372.015 -6.3Q380.1 -6.3 384.6675 -11.8125Q389.235 -17.325 389.235 -26.88Q389.235 -36.225 384.615 -41.685Q379.995 -47.144999999999996 372.015 -47.144999999999996Q364.035 -47.144999999999996 359.52 -41.685Q355.005 -36.225 355.005 -26.564999999999998Q355.005 -17.115 359.52 -11.7075Q364.035 -6.3 372.015 -6.3Z"/></g></g><g fill="#FFE24A" transform="translate(68 820) scale(1)"><g transform="translate(-8.40000 75.60000)"><path d="M34.86 0.945Q27.3 0.945 22.155 -2.7299999999999995Q17.009999999999998 -6.404999999999999 15.12 -13.125L16.8 -13.334999999999999V21.525H8.4V-53.55H16.275V-41.055L15.12 -41.37Q17.115 -47.565 22.68 -51.082499999999996Q28.244999999999997 -54.6 35.595 -54.6Q42.735 -54.6 48.037499999999994 -51.135000000000005Q53.339999999999996 -47.67 56.28 -41.475Q59.22 -35.28 59.22 -26.985Q59.22 -18.585 56.175 -12.285Q53.129999999999995 -5.984999999999999 47.67 -2.5199999999999996Q42.21 0.945 34.86 0.945ZM33.6 -6.404999999999999Q41.58 -6.404999999999999 46.095 -11.9175Q50.61 -17.43 50.61 -26.985Q50.61 -36.434999999999995 46.095 -41.8425Q41.58 -47.25 33.6 -47.25Q25.619999999999997 -47.25 21.0 -41.7375Q16.38 -36.225 16.38 -26.669999999999998Q16.38 -17.325 21.0 -11.864999999999998Q25.619999999999997 -6.404999999999999 33.6 -6.404999999999999Z"/><path d="M105.10499999999999 0.0Q104.685 -1.785 104.5275 -4.095Q104.37 -6.404999999999999 104.37 -9.975H103.845V-35.595Q103.845 -41.684999999999995 101.0625 -44.5725Q98.28 -47.46 92.085 -47.46Q85.99499999999999 -47.46 82.3725 -44.9925Q78.75 -42.525 78.33 -38.01H70.24499999999999Q70.77 -45.78 76.755 -50.19Q82.74 -54.6 92.39999999999999 -54.6Q102.375 -54.6 107.205 -49.875Q112.035 -45.15 112.035 -35.699999999999996V-9.975Q112.035 -7.665 112.35 -5.1975Q112.66499999999999 -2.73 113.19 0.0ZM86.72999999999999 1.05Q78.435 1.05 73.55250000000001 -2.9925Q68.67 -7.035 68.67 -14.07Q68.67 -21.105 73.5 -24.990000000000002Q78.33 -28.875 87.57 -30.45L106.25999999999999 -33.6V-26.669999999999998L88.83 -23.939999999999998Q82.94999999999999 -22.994999999999997 79.905 -20.79Q76.86 -18.585 76.86 -14.385Q76.86 -10.29 79.6425 -8.19Q82.425 -6.09 87.88499999999999 -6.09Q94.91999999999999 -6.09 99.3825 -9.2925Q103.845 -12.495 103.845 -17.64L105.21 -10.185Q103.53 -4.83 98.6475 -1.8900000000000001Q93.76499999999999 1.05 86.72999999999999 1.05Z"/><path d="M128.20499999999998 0.0V-53.55H136.07999999999998V-39.9H136.605V0.0ZM136.605 -27.93 135.23999999999998 -40.635Q137.13 -47.46 141.95999999999998 -51.03Q146.79 -54.6 153.08999999999997 -54.6Q155.71499999999997 -54.6 156.66 -54.18V-46.095Q156.135 -46.305 155.19 -46.3575Q154.245 -46.41 152.88 -46.41Q144.89999999999998 -46.41 140.7525 -41.63249999999999Q136.605 -36.855 136.605 -27.93Z"/><path d="M198.87 0.0Q198.45 -1.785 198.2925 -4.095Q198.135 -6.404999999999999 198.135 -9.975H197.60999999999999V-35.595Q197.60999999999999 -41.684999999999995 194.8275 -44.5725Q192.045 -47.46 185.85 -47.46Q179.76 -47.46 176.1375 -44.9925Q172.515 -42.525 172.095 -38.01H164.01Q164.535 -45.78 170.51999999999998 -50.19Q176.505 -54.6 186.165 -54.6Q196.14 -54.6 200.96999999999997 -49.875Q205.79999999999998 -45.15 205.79999999999998 -35.699999999999996V-9.975Q205.79999999999998 -7.665 206.11499999999998 -5.1975Q206.42999999999998 -2.73 206.95499999999998 0.0ZM180.495 1.05Q172.2 1.05 167.3175 -2.9925Q162.435 -7.035 162.435 -14.07Q162.435 -21.105 167.265 -24.990000000000002Q172.095 -28.875 181.33499999999998 -30.45L200.02499999999998 -33.6V-26.669999999999998L182.595 -23.939999999999998Q176.71499999999997 -22.994999999999997 173.67 -20.79Q170.625 -18.585 170.625 -14.385Q170.625 -10.29 173.4075 -8.19Q176.19 -6.09 181.64999999999998 -6.09Q188.685 -6.09 193.14749999999998 -9.2925Q197.60999999999999 -12.495 197.60999999999999 -17.64L198.975 -10.185Q197.295 -4.83 192.41249999999997 -1.8900000000000001Q187.52999999999997 1.05 180.495 1.05Z"/><path d=""/><path d="M269.43 0.945Q261.87 0.945 256.725 -2.7299999999999995Q251.57999999999998 -6.404999999999999 249.69 -13.125L251.37 -13.334999999999999V21.525H242.97V-53.55H250.845V-41.055L249.69 -41.37Q251.685 -47.565 257.25 -51.082499999999996Q262.815 -54.6 270.16499999999996 -54.6Q277.305 -54.6 282.60749999999996 -51.135000000000005Q287.90999999999997 -47.67 290.84999999999997 -41.475Q293.78999999999996 -35.28 293.78999999999996 -26.985Q293.78999999999996 -18.585 290.745 -12.285Q287.7 -5.984999999999999 282.24 -2.5199999999999996Q276.78 0.945 269.43 0.945ZM268.17 -6.404999999999999Q276.15 -6.404999999999999 280.66499999999996 -11.9175Q285.18 -17.43 285.18 -26.985Q285.18 -36.434999999999995 280.66499999999996 -41.8425Q276.15 -47.25 268.17 -47.25Q260.19 -47.25 255.57 -41.7375Q250.95 -36.225 250.95 -26.669999999999998Q250.95 -17.325 255.57 -11.864999999999998Q260.19 -6.404999999999999 268.17 -6.404999999999999Z"/><path d="M306.59999999999997 0.0V-53.55H314.47499999999997V-39.9H315.0V0.0ZM315.0 -27.93 313.635 -40.635Q315.525 -47.46 320.355 -51.03Q325.185 -54.6 331.485 -54.6Q334.11 -54.6 335.055 -54.18V-46.095Q334.53 -46.305 333.585 -46.3575Q332.64 -46.41 331.275 -46.41Q323.29499999999996 -46.41 319.1475 -41.63249999999999Q315.0 -36.855 315.0 -27.93Z"/><path d="M368.235 1.05Q360.36 1.05 354.375 -2.625Q348.39 -6.3 345.0825 -12.6525Q341.775 -19.005 341.775 -26.985Q341.775 -35.07 345.135 -41.265Q348.495 -47.46 354.4275 -51.03Q360.36 -54.6 368.235 -54.6Q376.215 -54.6 382.1475 -51.03Q388.08 -47.46 391.3875 -41.265Q394.695 -35.07 394.695 -26.985Q394.695 -19.005 391.3875 -12.6525Q388.08 -6.3 382.1475 -2.625Q376.215 1.05 368.235 1.05ZM368.235 -6.09Q373.695 -6.09 377.685 -8.7675Q381.675 -11.445 383.88 -16.17Q386.085 -20.895 386.085 -27.09Q386.085 -36.33 381.2025 -41.894999999999996Q376.32 -47.46 368.235 -47.46Q360.255 -47.46 355.32 -41.894999999999996Q350.385 -36.33 350.385 -27.09Q350.385 -20.895 352.59 -16.17Q354.79499999999996 -11.445 358.8375 -8.7675Q362.88 -6.09 368.235 -6.09Z"/><path d="M446.25 0.0V-12.495L447.29999999999995 -12.18Q445.30499999999995 -6.09 440.00249999999994 -2.52Q434.7 1.05 427.34999999999997 1.05Q420.10499999999996 1.05 414.6975 -2.415Q409.28999999999996 -5.88 406.2975 -12.075Q403.305 -18.27 403.305 -26.564999999999998Q403.305 -34.964999999999996 406.35 -41.265Q409.395 -47.565 414.855 -51.03Q420.315 -54.495 427.66499999999996 -54.495Q435.22499999999997 -54.495 440.37 -50.81999999999999Q445.515 -47.144999999999996 447.405 -40.425L445.72499999999997 -40.214999999999996V-75.6H454.125V0.0ZM428.92499999999995 -6.3Q437.01 -6.3 441.5775 -11.8125Q446.145 -17.325 446.145 -26.88Q446.145 -36.225 441.525 -41.685Q436.905 -47.144999999999996 428.92499999999995 -47.144999999999996Q420.945 -47.144999999999996 416.42999999999995 -41.685Q411.91499999999996 -36.225 411.91499999999996 -26.564999999999998Q411.91499999999996 -17.115 416.42999999999995 -11.7075Q420.945 -6.3 428.92499999999995 -6.3Z"/><path d="M488.35499999999996 1.05Q483.10499999999996 1.05 479.01 -1.1025Q474.91499999999996 -3.255 472.60499999999996 -7.192499999999999Q470.29499999999996 -11.129999999999999 470.29499999999996 -16.275V-53.55H478.695V-18.48Q478.695 -12.389999999999999 481.6875 -9.344999999999999Q484.67999999999995 -6.3 490.245 -6.3Q495.28499999999997 -6.3 499.16999999999996 -8.61Q503.05499999999995 -10.92 505.3125 -15.067499999999999Q507.57 -19.215 507.57 -24.57L508.93499999999995 -11.865Q506.30999999999995 -5.88 500.74499999999995 -2.415Q495.17999999999995 1.05 488.35499999999996 1.05ZM508.09499999999997 0.0V-12.6H507.57V-53.55H515.97V0.0Z"/><path d="M553.77 1.05Q546.42 1.05 540.6975 -2.5725Q534.975 -6.194999999999999 531.6675 -12.5475Q528.36 -18.9 528.36 -26.985Q528.36 -35.07 531.6675 -41.265Q534.975 -47.46 540.6975 -51.03Q546.42 -54.6 553.665 -54.6Q559.65 -54.6 564.4275 -52.29Q569.2049999999999 -49.98 572.3025 -45.7275Q575.4 -41.475 576.24 -35.805H568.4699999999999Q567.42 -40.949999999999996 563.64 -44.205Q559.86 -47.46 553.875 -47.46Q548.73 -47.46 544.95 -44.94Q541.17 -42.42 539.0699999999999 -37.8Q536.9699999999999 -33.18 536.9699999999999 -26.985Q536.9699999999999 -20.79 539.0699999999999 -16.064999999999998Q541.17 -11.34 545.0024999999999 -8.715Q548.8349999999999 -6.09 553.98 -6.09Q559.755 -6.09 563.64 -9.2925Q567.525 -12.495 568.5749999999999 -17.64H576.3449999999999Q575.4 -12.075 572.1975 -7.8225Q568.995 -3.57 564.27 -1.2599999999999998Q559.545 1.05 553.77 1.05Z"/><path d="M588.1049999999999 0.0V-53.55H596.5049999999999V0.0ZM587.4749999999999 -65.73V-75.6H597.135V-65.73Z"/><path d="M613.305 0.0V-53.55H621.18V-39.9H621.7049999999999V0.0ZM621.7049999999999 -27.93 620.3399999999999 -40.635Q622.23 -47.46 627.06 -51.03Q631.89 -54.6 638.1899999999999 -54.6Q640.8149999999999 -54.6 641.76 -54.18V-46.095Q641.235 -46.305 640.29 -46.3575Q639.345 -46.41 637.98 -46.41Q630.0 -46.41 625.8525 -41.63249999999999Q621.7049999999999 -36.855 621.7049999999999 -27.93Z"/><path d="M641.655 0.0V-10.815H652.4699999999999V0.0Z"/></g></g><g fill="#F5F4EF" transform="translate(72 1014) scale(1)"><g transform="translate(-0.96000 14.49600)"><path d="M4.8 0.256Q3.008 0.256 1.984 -0.88Q0.96 -2.016 0.96 -3.968V-11.36H2.336V-3.968Q2.336 -2.56 2.968 -1.824Q3.6 -1.088 4.8 -1.088Q6.0 -1.088 6.632 -1.824Q7.264 -2.56 7.264 -3.968V-11.36H8.64V-3.968Q8.64 -2.016 7.6160000000000005 -0.88Q6.5920000000000005 0.256 4.8 0.256Z"/><path d="M11.719999999999999 0.0V-11.36H13.672L17.944 -0.976L17.704 -0.928V-11.36H19.08V0.0H17.128L12.856 -10.384L13.096 -10.448V0.0Z"/><path d=""/><path d="M33.24 0.0V-11.36H40.152V-10.016H34.616V-6.352H39.96V-5.04H34.616V-1.344H40.28V0.0Z"/><path d="M48.48 1.9040000000000001 46.4 -3.488H47.775999999999996L49.856 1.9040000000000001ZM47.199999999999996 0.256Q45.856 0.256 44.92 -0.43200000000000005Q43.984 -1.12 43.495999999999995 -2.4480000000000004Q43.007999999999996 -3.7760000000000002 43.007999999999996 -5.664Q43.007999999999996 -7.5840000000000005 43.495999999999995 -8.912Q43.984 -10.24 44.92 -10.928Q45.856 -11.616 47.199999999999996 -11.616Q48.544 -11.616 49.48 -10.928Q50.416 -10.24 50.903999999999996 -8.912Q51.391999999999996 -7.5840000000000005 51.391999999999996 -5.664Q51.391999999999996 -3.7760000000000002 50.903999999999996 -2.4480000000000004Q50.416 -1.12 49.48 -0.43200000000000005Q48.544 0.256 47.199999999999996 0.256ZM47.199999999999996 -1.088Q47.856 -1.088 48.367999999999995 -1.384Q48.879999999999995 -1.68 49.232 -2.264Q49.583999999999996 -2.848 49.768 -3.696Q49.952 -4.5440000000000005 49.952 -5.664Q49.952 -7.152 49.632 -8.184000000000001Q49.312 -9.216000000000001 48.696 -9.744Q48.08 -10.272 47.199999999999996 -10.272Q46.32 -10.272 45.704 -9.744Q45.088 -9.216000000000001 44.768 -8.184000000000001Q44.448 -7.152 44.448 -5.664Q44.448 -4.176 44.768 -3.152Q45.088 -2.128 45.704 -1.608Q46.32 -1.088 47.199999999999996 -1.088Z"/><path d="M57.8 0.256Q56.008 0.256 54.984 -0.88Q53.96 -2.016 53.96 -3.968V-11.36H55.336V-3.968Q55.336 -2.56 55.968 -1.824Q56.6 -1.088 57.8 -1.088Q59.0 -1.088 59.632000000000005 -1.824Q60.264 -2.56 60.264 -3.968V-11.36H61.64V-3.968Q61.64 -2.016 60.616 -0.88Q59.592 0.256 57.8 0.256Z"/><path d="M64.88 0.0V-1.344H67.712V-10.016H64.88V-11.36H71.92V-10.016H69.08800000000001V-1.344H71.92V0.0Z"/><path d="M75.64 0.0V-11.36H79.096Q80.28 -11.36 81.16 -10.943999999999999Q82.04 -10.528 82.52000000000001 -9.752Q83.0 -8.976 83.0 -7.888Q83.0 -6.8 82.52000000000001 -6.024Q82.04 -5.248 81.16 -4.832000000000001Q80.28 -4.416 79.096 -4.416H77.016V0.0ZM77.016 -5.76H78.936Q80.28 -5.76 80.92 -6.311999999999999Q81.56 -6.864 81.56 -7.888Q81.56 -8.928 80.92 -9.472000000000001Q80.28 -10.016 78.936 -10.016H77.016Z"/><path d="M89.6 0.256Q88.256 0.256 87.32 -0.43200000000000005Q86.384 -1.12 85.896 -2.4480000000000004Q85.408 -3.7760000000000002 85.408 -5.664Q85.408 -7.5840000000000005 85.896 -8.912Q86.384 -10.24 87.32 -10.928Q88.256 -11.616 89.6 -11.616Q90.944 -11.616 91.88 -10.928Q92.816 -10.24 93.304 -8.912Q93.792 -7.5840000000000005 93.792 -5.664Q93.792 -3.7760000000000002 93.304 -2.4480000000000004Q92.816 -1.12 91.88 -0.43200000000000005Q90.944 0.256 89.6 0.256ZM89.6 -1.088Q90.47999999999999 -1.088 91.096 -1.608Q91.712 -2.128 92.03200000000001 -3.152Q92.352 -4.176 92.352 -5.664Q92.352 -7.152 92.03200000000001 -8.184000000000001Q91.712 -9.216000000000001 91.096 -9.744Q90.47999999999999 -10.272 89.6 -10.272Q88.72 -10.272 88.104 -9.744Q87.488 -9.216000000000001 87.168 -8.184000000000001Q86.848 -7.152 86.848 -5.664Q86.848 -4.176 87.168 -3.152Q87.488 -2.128 88.104 -1.608Q88.72 -1.088 89.6 -1.088Z"/><path d=""/><path d="M107.44 0.0V-11.36H110.128Q111.6 -11.36 112.696 -10.696Q113.792 -10.032 114.392 -8.76Q114.992 -7.488 114.992 -5.664Q114.992 -3.84 114.392 -2.576Q113.792 -1.312 112.696 -0.656Q111.6 0.0 110.128 0.0ZM108.816 -1.344H110.048Q111.712 -1.344 112.632 -2.424Q113.552 -3.504 113.552 -5.664Q113.552 -7.824 112.632 -8.92Q111.712 -10.016 110.048 -10.016H108.816Z"/><path d="M118.04 0.0V-11.36H124.95200000000001V-10.016H119.41600000000001V-6.352H124.76V-5.04H119.41600000000001V-1.344H125.08000000000001V0.0Z"/><path d=""/><path d="M138.216 0.0 141.67200000000003 -11.36H143.52800000000002L146.984 0.0H145.512L142.60000000000002 -10.112L139.68800000000002 0.0ZM139.96 -3.232 140.44 -4.5760000000000005H144.76000000000002L145.24 -3.232Z"/><path d="M153.168 0.256Q151.96800000000002 0.256 151.032 -0.40800000000000003Q150.096 -1.072 149.55200000000002 -2.3920000000000003Q149.008 -3.712 149.008 -5.664Q149.008 -7.5040000000000004 149.512 -8.832Q150.01600000000002 -10.16 150.96 -10.888Q151.904 -11.616 153.232 -11.616Q154.272 -11.616 155.07999999999998 -11.152000000000001Q155.888 -10.688 156.43200000000002 -9.864Q156.976 -9.040000000000001 157.216 -7.968L155.776 -7.872Q155.50400000000002 -8.928 154.872 -9.600000000000001Q154.24 -10.272 153.232 -10.272Q152.352 -10.272 151.728 -9.736Q151.104 -9.200000000000001 150.776 -8.168000000000001Q150.448 -7.136 150.448 -5.664Q150.448 -4.208 150.784 -3.184Q151.12 -2.16 151.752 -1.624Q152.38400000000001 -1.088 153.296 -1.088Q154.112 -1.088 154.696 -1.512Q155.28 -1.936 155.61599999999999 -2.6959999999999997Q155.952 -3.456 155.984 -4.432H153.264V-5.744H157.264V0.0H155.984L155.92000000000002 -2.688L156.304 -2.56Q156.08 -1.744 155.688 -1.104Q155.296 -0.464 154.68 -0.10400000000000001Q154.064 0.256 153.168 0.256Z"/><path d="M160.44 0.0V-11.36H167.352V-10.016H161.816V-6.352H167.16V-5.04H161.816V-1.344H167.48V0.0Z"/><path d="M170.72 0.0V-11.36H172.672L176.944 -0.976L176.704 -0.928V-11.36H178.07999999999998V0.0H176.128L171.856 -10.384L172.096 -10.448V0.0Z"/><path d="M184.312 0.0V-10.016H180.84V-11.36H189.16000000000003V-10.016H185.68800000000002V0.0Z"/><path d="M192.24 0.0V-11.36H199.15200000000002V-10.016H193.616V-6.352H198.96V-5.04H193.616V-1.344H199.28V0.0Z"/><path d="M206.376 0.256Q205.17600000000002 0.256 204.248 -0.24Q203.32 -0.736 202.76 -1.608Q202.20000000000002 -2.48 202.104 -3.632L203.544 -3.728Q203.656 -2.88 204.032 -2.288Q204.40800000000002 -1.696 205.008 -1.392Q205.608 -1.088 206.40800000000002 -1.088Q207.208 -1.088 207.752 -1.288Q208.296 -1.488 208.576 -1.8800000000000001Q208.856 -2.2720000000000002 208.856 -2.832Q208.856 -3.376 208.608 -3.768Q208.36 -4.16 207.68 -4.504Q207.0 -4.848 205.672 -5.216Q204.488 -5.5520000000000005 203.76 -5.960000000000001Q203.032 -6.368 202.704 -6.952Q202.376 -7.5360000000000005 202.376 -8.384Q202.376 -9.344 202.832 -10.072Q203.288 -10.8 204.13600000000002 -11.208Q204.984 -11.616 206.15200000000002 -11.616Q207.32 -11.616 208.152 -11.144Q208.984 -10.672 209.472 -9.856000000000002Q209.96 -9.040000000000001 210.088 -8.0L208.648 -7.904Q208.552 -8.592 208.248 -9.128Q207.94400000000002 -9.664 207.416 -9.968Q206.888 -10.272 206.12 -10.272Q205.064 -10.272 204.44 -9.768Q203.816 -9.264 203.816 -8.448Q203.816 -7.92 204.048 -7.5760000000000005Q204.28 -7.232 204.872 -6.968Q205.464 -6.704 206.536 -6.4Q207.928 -6.016 208.752 -5.536Q209.576 -5.056 209.93599999999998 -4.4Q210.296 -3.744 210.296 -2.8000000000000003Q210.296 -1.9040000000000001 209.8 -1.2080000000000002Q209.304 -0.512 208.424 -0.128Q207.544 0.256 206.376 0.256Z"/><path d="M215.808 0.0V-1.952H217.792V0.0Z"/><path d=""/><path d="M237.312 0.0V-10.016H233.84V-11.36H242.16000000000003V-10.016H238.68800000000002V0.0Z"/><path d="M248.60000000000002 0.256Q246.80800000000002 0.256 245.78400000000002 -0.88Q244.76000000000002 -2.016 244.76000000000002 -3.968V-11.36H246.13600000000002V-3.968Q246.13600000000002 -2.56 246.76800000000003 -1.824Q247.4 -1.088 248.60000000000002 -1.088Q249.8 -1.088 250.43200000000002 -1.824Q251.06400000000002 -2.56 251.06400000000002 -3.968V-11.36H252.44V-3.968Q252.44 -2.016 251.416 -0.88Q250.39200000000002 0.256 248.60000000000002 0.256Z"/><path d=""/><path d="M266.44 0.0V-11.36H269.128Q270.6 -11.36 271.696 -10.696Q272.792 -10.032 273.392 -8.76Q273.992 -7.488 273.992 -5.664Q273.992 -3.84 273.392 -2.576Q272.792 -1.312 271.696 -0.656Q270.6 0.0 269.128 0.0ZM267.816 -1.344H269.048Q270.712 -1.344 271.632 -2.424Q272.552 -3.504 272.552 -5.664Q272.552 -7.824 271.632 -8.92Q270.712 -10.016 269.048 -10.016H267.816Z"/><path d="M276.88 0.0V-1.344H279.71200000000005V-10.016H276.88V-11.36H283.92V-10.016H281.088V-1.344H283.92V0.0Z"/><path d="M287.32 0.0V-11.36H290.776Q292.568 -11.36 293.60799999999995 -10.456Q294.64799999999997 -9.552 294.64799999999997 -7.968Q294.64799999999997 -7.168 294.28 -6.552Q293.912 -5.936 293.336 -5.584Q292.76 -5.232 292.152 -5.184L292.08799999999997 -5.376Q293.224 -5.312 293.79200000000003 -4.832000000000001Q294.36 -4.352 294.456 -3.2640000000000002L294.74399999999997 0.0H293.368L293.096 -3.088Q293.048 -3.616 292.84799999999996 -3.944Q292.64799999999997 -4.272 292.224 -4.424Q291.8 -4.5760000000000005 291.06399999999996 -4.5760000000000005H288.69599999999997V0.0ZM288.69599999999997 -5.92H290.776Q291.96 -5.92 292.58399999999995 -6.4559999999999995Q293.20799999999997 -6.992 293.20799999999997 -7.968Q293.20799999999997 -8.96 292.58399999999995 -9.488Q291.96 -10.016 290.776 -10.016H288.69599999999997Z"/><path d="M298.24 0.0V-11.36H305.152V-10.016H299.616V-6.352H304.96000000000004V-5.04H299.616V-1.344H305.28000000000003V0.0Z"/><path d="M312.232 0.256Q310.872 0.256 309.928 -0.46399999999999997Q308.98400000000004 -1.184 308.49600000000004 -2.512Q308.00800000000004 -3.84 308.00800000000004 -5.664Q308.00800000000004 -7.5040000000000004 308.49600000000004 -8.832Q308.98400000000004 -10.16 309.928 -10.888Q310.872 -11.616 312.232 -11.616Q313.73600000000005 -11.616 314.79200000000003 -10.632Q315.848 -9.648 316.20000000000005 -7.888L314.728 -7.792Q314.456 -9.024000000000001 313.79200000000003 -9.648Q313.12800000000004 -10.272 312.232 -10.272Q311.32000000000005 -10.272 310.70400000000006 -9.736Q310.088 -9.200000000000001 309.76800000000003 -8.168000000000001Q309.44800000000004 -7.136 309.44800000000004 -5.664Q309.44800000000004 -4.208 309.76800000000003 -3.184Q310.088 -2.16 310.70400000000006 -1.624Q311.32000000000005 -1.088 312.232 -1.088Q313.22400000000005 -1.088 313.91200000000003 -1.776Q314.6 -2.464 314.84000000000003 -3.8240000000000003L316.29600000000005 -3.744Q315.992 -1.872 314.92 -0.808Q313.848 0.256 312.232 0.256Z"/><path d="M322.832 0.256Q321.472 0.256 320.528 -0.46399999999999997Q319.584 -1.184 319.096 -2.512Q318.608 -3.84 318.608 -5.664Q318.608 -7.5040000000000004 319.096 -8.832Q319.584 -10.16 320.528 -10.888Q321.472 -11.616 322.832 -11.616Q324.336 -11.616 325.392 -10.632Q326.448 -9.648 326.8 -7.888L325.328 -7.792Q325.056 -9.024000000000001 324.392 -9.648Q323.728 -10.272 322.832 -10.272Q321.92 -10.272 321.304 -9.736Q320.688 -9.200000000000001 320.368 -8.168000000000001Q320.048 -7.136 320.048 -5.664Q320.048 -4.208 320.368 -3.184Q320.688 -2.16 321.304 -1.624Q321.92 -1.088 322.832 -1.088Q323.824 -1.088 324.512 -1.776Q325.2 -2.464 325.44 -3.8240000000000003L326.896 -3.744Q326.592 -1.872 325.52 -0.808Q324.448 0.256 322.832 0.256Z"/><path d="M329.88 0.0V-1.344H332.71200000000005V-10.016H329.88V-11.36H336.92V-10.016H334.088V-1.344H336.92V0.0Z"/><path d="M344.0 0.256Q342.656 0.256 341.72 -0.43200000000000005Q340.784 -1.12 340.296 -2.4480000000000004Q339.808 -3.7760000000000002 339.808 -5.664Q339.808 -7.5840000000000005 340.296 -8.912Q340.784 -10.24 341.72 -10.928Q342.656 -11.616 344.0 -11.616Q345.344 -11.616 346.28 -10.928Q347.216 -10.24 347.704 -8.912Q348.192 -7.5840000000000005 348.192 -5.664Q348.192 -3.7760000000000002 347.704 -2.4480000000000004Q347.216 -1.12 346.28 -0.43200000000000005Q345.344 0.256 344.0 0.256ZM344.0 -1.088Q344.88 -1.088 345.496 -1.608Q346.11199999999997 -2.128 346.432 -3.152Q346.752 -4.176 346.752 -5.664Q346.752 -7.152 346.432 -8.184000000000001Q346.11199999999997 -9.216000000000001 345.496 -9.744Q344.88 -10.272 344.0 -10.272Q343.12 -10.272 342.504 -9.744Q341.888 -9.216000000000001 341.568 -8.184000000000001Q341.248 -7.152 341.248 -5.664Q341.248 -4.176 341.568 -3.152Q341.888 -2.128 342.504 -1.608Q343.12 -1.088 344.0 -1.088ZM343.392 -12.448 344.44800000000004 -14.495999999999999H345.952L344.512 -12.448Z"/><path d="M350.92 0.0V-11.36H352.872L357.144 -0.976L356.904 -0.928V-11.36H358.28000000000003V0.0H356.32800000000003L352.05600000000004 -10.384L352.296 -10.448V0.0Z"/><path d="M364.208 0.0V-1.952H366.192V0.0Z"/></g></g></svg>
