<svg xmlns="http://www.w3.org/2000/svg" width="802" height="420" viewBox="0 0 802 420" role="img" aria-label="Filmpilot. Libertad para crear. Claridad para producir."><g transform="translate(20 20)"><g fill="#F5F4EF"><path d="M 32,72 C 15,59 22,41 43,24 C 63,8 89,6 79,28 C 72,43 53,57 51,73 C 51,85 44,83 32,72 Z"/><path d="M 113,19 C 114,10 135,-2 144,0 C 159,2 135,23 120,24 C 114,25 110,24 113,19 Z"/><path d="M 97,47 C 112,37 140,53 157,66 C 173,78 183,99 167,99 C 156,99 130,80 113,70 C 97,60 91,53 97,47 Z"/><path d="M 2,81 C 12,66 36,91 58,102 C 74,110 94,115 85,124 C 75,137 43,135 23,122 C 8,112 -5,95 2,81 Z"/><path d="M 80,167 C 65,157 95,123 109,103 C 117,92 118,83 126,90 C 147,106 148,126 132,145 C 116,164 88,174 80,167 Z"/></g></g><g transform="translate(226 37)"><g fill="#F5F4EF"><g fill-rule="evenodd">
<path d="M15 125V61H0V49H15V36C15 13 28 2 47 2H65L58 16H48C34 16 30 22 30 39V49H62V61H30V125Z"/>
<path d="M75 49H90V125H75Z M112 22H127V125H112Z"/>
<path d="M73 16C72 6 89 -4 97 1C109 9 87 26 78 24C73 23 71 20 73 16Z"/>
<path d="M138 125V49H153V60C165 43 190 43 206 60C222 42 251 42 262 61C265 66 266 74 266 84V125H251V83C251 67 244 61 232 61C220 61 211 69 211 82V125H196V83C196 68 188 61 177 61C164 61 153 70 153 83V125Z"/>
<path d="M277 155V49H292V60C300 51 310 47 323 47C347 47 364 64 364 87C364 111 347 127 323 127C310 127 300 123 292 114V155Z M350 87C350 71 338 60 322 60C305 60 292 71 292 87C292 103 305 114 322 114C338 114 350 103 350 87Z"/>
<path d="M371 50H386V125H371Z M397 2H412V125H397Z"/>
<circle cx="378.5" cy="29.5" r="9.5"/>
<path d="M509 87C509 110 491 127 465 127C439 127 421 110 421 87C421 64 439 47 465 47C491 47 509 64 509 87Z M494 87C494 71 482 60 465 60C448 60 436 71 436 87C436 103 448 114 465 114C482 114 494 103 494 87Z"/>
<path d="M523 28H538V49H562V62H538V99C538 111 546 114 562 112V125C537 130 523 120 523 102V62H508V49H523Z"/>
</g></g></g><g fill="#F5F4EF" transform="translate(24 268) scale(1)"><g transform="translate(-4.98800 41.76000)"><path d="M4.988 0.0V-41.760000000000005H9.744V0.0ZM7.424 0.0V-4.176H31.204V0.0Z"/><path d="M37.178000000000004 0.0V-29.580000000000002H41.818000000000005V0.0ZM36.83 -36.308V-41.760000000000005H42.166000000000004V-36.308Z"/><path d="M65.714 0.522Q61.538000000000004 0.522 58.696000000000005 -1.508Q55.854000000000006 -3.5380000000000003 54.81 -7.25L55.44800000000001 -7.3660000000000005V0.0H51.098000000000006V-41.760000000000005H55.73800000000001V-22.678L55.10000000000001 -22.852Q56.202000000000005 -26.274 59.131 -28.217Q62.06 -30.16 66.12 -30.16Q70.06400000000001 -30.16 72.99300000000001 -28.246000000000002Q75.92200000000001 -26.332 77.54600000000002 -22.91Q79.17000000000002 -19.488 79.17000000000002 -14.906Q79.17000000000002 -10.266 77.48800000000001 -6.786Q75.80600000000001 -3.306 72.79 -1.392Q69.774 0.522 65.714 0.522ZM65.018 -3.5380000000000003Q69.426 -3.5380000000000003 71.92000000000002 -6.583Q74.41400000000002 -9.628 74.41400000000002 -14.906Q74.41400000000002 -20.126 71.92000000000002 -23.113Q69.426 -26.1 65.018 -26.1Q60.61000000000001 -26.1 58.05800000000001 -23.055Q55.50600000000001 -20.01 55.50600000000001 -14.732000000000001Q55.50600000000001 -9.57 58.05800000000001 -6.554Q60.61000000000001 -3.5380000000000003 65.018 -3.5380000000000003Z"/><path d="M98.36800000000001 0.5800000000000001Q94.13400000000001 0.5800000000000001 90.88600000000001 -1.421Q87.638 -3.422 85.78200000000001 -6.902Q83.92600000000002 -10.382 83.92600000000002 -14.906Q83.92600000000002 -19.43 85.75300000000001 -22.881Q87.58000000000001 -26.332 90.88600000000001 -28.246000000000002Q94.19200000000001 -30.16 98.48400000000001 -30.16Q102.602 -30.16 105.647 -28.362000000000002Q108.69200000000001 -26.564 110.34500000000001 -23.316000000000003Q111.99800000000002 -20.068 111.99800000000002 -15.66Q111.99800000000002 -15.08 111.96900000000002 -14.558Q111.94000000000001 -14.036000000000001 111.82400000000001 -13.398000000000001H87.406V-17.284000000000002H108.98200000000001L107.47400000000002 -15.138Q107.47400000000002 -20.474 105.12500000000001 -23.345Q102.77600000000001 -26.216 98.48400000000001 -26.216Q94.07600000000001 -26.216 91.37900000000002 -23.171Q88.68200000000002 -20.126 88.68200000000002 -14.964Q88.68200000000002 -9.686 91.37900000000002 -6.525Q94.07600000000001 -3.3640000000000003 98.60000000000001 -3.3640000000000003Q101.44200000000001 -3.3640000000000003 103.58800000000001 -4.611000000000001Q105.73400000000001 -5.8580000000000005 106.72000000000001 -8.178H111.12800000000001Q109.67800000000001 -4.118 106.28500000000001 -1.7690000000000001Q102.89200000000001 0.5800000000000001 98.36800000000001 0.5800000000000001Z"/><path d="M118.95800000000001 0.0V-29.580000000000002H123.308V-22.040000000000003H123.59800000000001V0.0ZM123.59800000000001 -15.428 122.84400000000001 -22.446Q123.888 -26.216 126.55600000000001 -28.188000000000002Q129.22400000000002 -30.16 132.704 -30.16Q134.15400000000002 -30.16 134.67600000000002 -29.928V-25.462Q134.38600000000002 -25.578000000000003 133.86400000000003 -25.607000000000003Q133.342 -25.636000000000003 132.58800000000002 -25.636000000000003Q128.18 -25.636000000000003 125.88900000000001 -22.997Q123.59800000000001 -20.358 123.59800000000001 -15.428Z"/><path d="M153.23600000000002 0.522Q148.306 0.522 146.073 -1.7110000000000003Q143.84 -3.9440000000000004 143.84 -8.178V-36.482L148.48000000000002 -38.222V-8.236Q148.48000000000002 -5.742 149.75600000000003 -4.582Q151.032 -3.422 153.93200000000002 -3.422Q155.092 -3.422 155.933 -3.567Q156.774 -3.712 157.29600000000002 -3.9440000000000004V0.0Q156.716 0.232 155.64300000000003 0.377Q154.57000000000002 0.522 153.23600000000002 0.522ZM137.75 -25.636000000000003V-29.580000000000002H157.29600000000002V-25.636000000000003Z"/><path d="M181.424 0.0Q181.192 -0.9860000000000001 181.10500000000002 -2.262Q181.018 -3.5380000000000003 181.018 -5.510000000000001H180.728V-19.662000000000003Q180.728 -23.026 179.191 -24.621000000000002Q177.654 -26.216 174.232 -26.216Q170.868 -26.216 168.867 -24.853Q166.86599999999999 -23.490000000000002 166.634 -20.996000000000002H162.168Q162.458 -25.288 165.764 -27.724Q169.07 -30.16 174.406 -30.16Q179.916 -30.16 182.584 -27.55Q185.252 -24.94 185.252 -19.720000000000002V-5.510000000000001Q185.252 -4.234 185.426 -2.871Q185.6 -1.508 185.89 0.0ZM171.274 0.5800000000000001Q166.692 0.5800000000000001 163.995 -1.653Q161.298 -3.886 161.298 -7.772Q161.298 -11.658000000000001 163.966 -13.804000000000002Q166.634 -15.950000000000001 171.738 -16.82L182.062 -18.560000000000002V-14.732000000000001L172.434 -13.224Q169.186 -12.702 167.50400000000002 -11.484Q165.822 -10.266 165.822 -7.946000000000001Q165.822 -5.684 167.35899999999998 -4.524Q168.896 -3.3640000000000003 171.912 -3.3640000000000003Q175.798 -3.3640000000000003 178.263 -5.133Q180.728 -6.902 180.728 -9.744L181.482 -5.626Q180.554 -2.668 177.857 -1.044Q175.16 0.5800000000000001 171.274 0.5800000000000001Z"/><path d="M215.702 0.0V-6.902L216.282 -6.728000000000001Q215.18 -3.3640000000000003 212.251 -1.3920000000000001Q209.322 0.5800000000000001 205.262 0.5800000000000001Q201.26000000000002 0.5800000000000001 198.27300000000002 -1.334Q195.286 -3.248 193.633 -6.67Q191.98000000000002 -10.092 191.98000000000002 -14.674000000000001Q191.98000000000002 -19.314 193.66200000000003 -22.794Q195.34400000000002 -26.274 198.36 -28.188000000000002Q201.376 -30.102 205.436 -30.102Q209.61200000000002 -30.102 212.454 -28.072000000000003Q215.29600000000002 -26.042 216.34 -22.330000000000002L215.412 -22.214000000000002V-41.760000000000005H220.05200000000002V0.0ZM206.132 -3.48Q210.598 -3.48 213.121 -6.525Q215.644 -9.57 215.644 -14.848Q215.644 -20.01 213.092 -23.026000000000003Q210.54000000000002 -26.042 206.132 -26.042Q201.72400000000002 -26.042 199.23000000000002 -23.026000000000003Q196.73600000000002 -20.01 196.73600000000002 -14.674000000000001Q196.73600000000002 -9.454 199.23000000000002 -6.4670000000000005Q201.72400000000002 -3.48 206.132 -3.48Z"/><path d=""/><path d="M255.548 0.522Q251.372 0.522 248.53 -1.508Q245.688 -3.5380000000000003 244.644 -7.25L245.572 -7.3660000000000005V11.89H240.93200000000002V-29.580000000000002H245.282V-22.678L244.644 -22.852Q245.746 -26.274 248.82 -28.217Q251.894 -30.16 255.954 -30.16Q259.898 -30.16 262.827 -28.246000000000002Q265.75600000000003 -26.332 267.38 -22.91Q269.004 -19.488 269.004 -14.906Q269.004 -10.266 267.322 -6.786Q265.64 -3.306 262.624 -1.392Q259.608 0.522 255.548 0.522ZM254.852 -3.5380000000000003Q259.26 -3.5380000000000003 261.754 -6.583Q264.248 -9.628 264.248 -14.906Q264.248 -20.126 261.754 -23.113Q259.26 -26.1 254.852 -26.1Q250.44400000000002 -26.1 247.892 -23.055Q245.34 -20.01 245.34 -14.732000000000001Q245.34 -9.57 247.892 -6.554Q250.44400000000002 -3.5380000000000003 254.852 -3.5380000000000003Z"/><path d="M294.35 0.0Q294.11800000000005 -0.9860000000000001 294.03100000000006 -2.262Q293.944 -3.5380000000000003 293.944 -5.510000000000001H293.65400000000005V-19.662000000000003Q293.65400000000005 -23.026 292.1170000000001 -24.621000000000002Q290.58000000000004 -26.216 287.158 -26.216Q283.79400000000004 -26.216 281.793 -24.853Q279.79200000000003 -23.490000000000002 279.56000000000006 -20.996000000000002H275.09400000000005Q275.384 -25.288 278.69000000000005 -27.724Q281.99600000000004 -30.16 287.33200000000005 -30.16Q292.84200000000004 -30.16 295.51000000000005 -27.55Q298.17800000000005 -24.94 298.17800000000005 -19.720000000000002V-5.510000000000001Q298.17800000000005 -4.234 298.3520000000001 -2.871Q298.52600000000007 -1.508 298.81600000000003 0.0ZM284.20000000000005 0.5800000000000001Q279.61800000000005 0.5800000000000001 276.92100000000005 -1.653Q274.22400000000005 -3.886 274.22400000000005 -7.772Q274.22400000000005 -11.658000000000001 276.89200000000005 -13.804000000000002Q279.56000000000006 -15.950000000000001 284.66400000000004 -16.82L294.98800000000006 -18.560000000000002V-14.732000000000001L285.36 -13.224Q282.112 -12.702 280.43000000000006 -11.484Q278.74800000000005 -10.266 278.74800000000005 -7.946000000000001Q278.74800000000005 -5.684 280.2850000000001 -4.524Q281.82200000000006 -3.3640000000000003 284.838 -3.3640000000000003Q288.72400000000005 -3.3640000000000003 291.1890000000001 -5.133Q293.65400000000005 -6.902 293.65400000000005 -9.744L294.408 -5.626Q293.48 -2.668 290.783 -1.044Q288.086 0.5800000000000001 284.20000000000005 0.5800000000000001Z"/><path d="M307.11 0.0V-29.580000000000002H311.46000000000004V-22.040000000000003H311.75V0.0ZM311.75 -15.428 310.99600000000004 -22.446Q312.04 -26.216 314.708 -28.188000000000002Q317.37600000000003 -30.16 320.85600000000005 -30.16Q322.30600000000004 -30.16 322.82800000000003 -29.928V-25.462Q322.538 -25.578000000000003 322.016 -25.607000000000003Q321.494 -25.636000000000003 320.74 -25.636000000000003Q316.33200000000005 -25.636000000000003 314.04100000000005 -22.997Q311.75 -20.358 311.75 -15.428Z"/><path d="M346.144 0.0Q345.91200000000003 -0.9860000000000001 345.82500000000005 -2.262Q345.738 -3.5380000000000003 345.738 -5.510000000000001H345.44800000000004V-19.662000000000003Q345.44800000000004 -23.026 343.91100000000006 -24.621000000000002Q342.374 -26.216 338.952 -26.216Q335.588 -26.216 333.587 -24.853Q331.586 -23.490000000000002 331.35400000000004 -20.996000000000002H326.88800000000003Q327.178 -25.288 330.48400000000004 -27.724Q333.79 -30.16 339.12600000000003 -30.16Q344.636 -30.16 347.30400000000003 -27.55Q349.97200000000004 -24.94 349.97200000000004 -19.720000000000002V-5.510000000000001Q349.97200000000004 -4.234 350.1460000000001 -2.871Q350.32000000000005 -1.508 350.61 0.0ZM335.994 0.5800000000000001Q331.41200000000003 0.5800000000000001 328.71500000000003 -1.653Q326.01800000000003 -3.886 326.01800000000003 -7.772Q326.01800000000003 -11.658000000000001 328.68600000000004 -13.804000000000002Q331.35400000000004 -15.950000000000001 336.458 -16.82L346.78200000000004 -18.560000000000002V-14.732000000000001L337.154 -13.224Q333.906 -12.702 332.22400000000005 -11.484Q330.54200000000003 -10.266 330.54200000000003 -7.946000000000001Q330.54200000000003 -5.684 332.07900000000006 -4.524Q333.61600000000004 -3.3640000000000003 336.632 -3.3640000000000003Q340.51800000000003 -3.3640000000000003 342.98300000000006 -5.133Q345.44800000000004 -6.902 345.44800000000004 -9.744L346.202 -5.626Q345.274 -2.668 342.577 -1.044Q339.88 0.5800000000000001 335.994 0.5800000000000001Z"/><path d=""/><path d="M382.22 0.5800000000000001Q378.16 0.5800000000000001 374.999 -1.421Q371.838 -3.422 370.011 -6.931000000000001Q368.184 -10.440000000000001 368.184 -14.906Q368.184 -19.372 370.011 -22.794Q371.838 -26.216 374.999 -28.188000000000002Q378.16 -30.16 382.16200000000003 -30.16Q385.468 -30.16 388.107 -28.884Q390.74600000000004 -27.608 392.457 -25.259Q394.168 -22.91 394.63200000000006 -19.778000000000002H390.34000000000003Q389.76000000000005 -22.62 387.672 -24.418Q385.58400000000006 -26.216 382.278 -26.216Q379.43600000000004 -26.216 377.34800000000007 -24.824Q375.26000000000005 -23.432000000000002 374.1 -20.880000000000003Q372.94000000000005 -18.328 372.94000000000005 -14.906Q372.94000000000005 -11.484 374.1 -8.874Q375.26000000000005 -6.264 377.37700000000007 -4.814Q379.494 -3.3640000000000003 382.336 -3.3640000000000003Q385.526 -3.3640000000000003 387.672 -5.133Q389.81800000000004 -6.902 390.398 -9.744H394.69000000000005Q394.168 -6.67 392.399 -4.321Q390.63000000000005 -1.9720000000000002 388.02000000000004 -0.6960000000000001Q385.41 0.5800000000000001 382.22 0.5800000000000001Z"/><path d="M401.418 0.0V-29.580000000000002H405.76800000000003V-22.040000000000003H406.058V0.0ZM406.058 -15.428 405.30400000000003 -22.446Q406.348 -26.216 409.016 -28.188000000000002Q411.684 -30.16 415.16400000000004 -30.16Q416.61400000000003 -30.16 417.136 -29.928V-25.462Q416.846 -25.578000000000003 416.324 -25.607000000000003Q415.802 -25.636000000000003 415.048 -25.636000000000003Q410.64000000000004 -25.636000000000003 408.34900000000005 -22.997Q406.058 -20.358 406.058 -15.428Z"/><path d="M434.24600000000004 0.5800000000000001Q430.01200000000006 0.5800000000000001 426.764 -1.421Q423.516 -3.422 421.66 -6.902Q419.80400000000003 -10.382 419.80400000000003 -14.906Q419.80400000000003 -19.43 421.63100000000003 -22.881Q423.458 -26.332 426.764 -28.246000000000002Q430.07000000000005 -30.16 434.362 -30.16Q438.48 -30.16 441.52500000000003 -28.362000000000002Q444.57000000000005 -26.564 446.22300000000007 -23.316000000000003Q447.87600000000003 -20.068 447.87600000000003 -15.66Q447.87600000000003 -15.08 447.84700000000004 -14.558Q447.81800000000004 -14.036000000000001 447.70200000000006 -13.398000000000001H423.28400000000005V-17.284000000000002H444.86L443.35200000000003 -15.138Q443.35200000000003 -20.474 441.00300000000004 -23.345Q438.65400000000005 -26.216 434.362 -26.216Q429.95400000000006 -26.216 427.25700000000006 -23.171Q424.56000000000006 -20.126 424.56000000000006 -14.964Q424.56000000000006 -9.686 427.25700000000006 -6.525Q429.95400000000006 -3.3640000000000003 434.47800000000007 -3.3640000000000003Q437.32000000000005 -3.3640000000000003 439.466 -4.611000000000001Q441.612 -5.8580000000000005 442.598 -8.178H447.00600000000003Q445.55600000000004 -4.118 442.163 -1.7690000000000001Q438.77000000000004 0.5800000000000001 434.24600000000004 0.5800000000000001Z"/><path d="M472.81600000000003 0.0Q472.58400000000006 -0.9860000000000001 472.49700000000007 -2.262Q472.41 -3.5380000000000003 472.41 -5.510000000000001H472.12000000000006V-19.662000000000003Q472.12000000000006 -23.026 470.5830000000001 -24.621000000000002Q469.04600000000005 -26.216 465.624 -26.216Q462.26000000000005 -26.216 460.259 -24.853Q458.25800000000004 -23.490000000000002 458.02600000000007 -20.996000000000002H453.56000000000006Q453.85 -25.288 457.15600000000006 -27.724Q460.46200000000005 -30.16 465.79800000000006 -30.16Q471.30800000000005 -30.16 473.97600000000006 -27.55Q476.64400000000006 -24.94 476.64400000000006 -19.720000000000002V-5.510000000000001Q476.64400000000006 -4.234 476.8180000000001 -2.871Q476.9920000000001 -1.508 477.28200000000004 0.0ZM462.66600000000005 0.5800000000000001Q458.08400000000006 0.5800000000000001 455.38700000000006 -1.653Q452.69000000000005 -3.886 452.69000000000005 -7.772Q452.69000000000005 -11.658000000000001 455.35800000000006 -13.804000000000002Q458.02600000000007 -15.950000000000001 463.13000000000005 -16.82L473.45400000000006 -18.560000000000002V-14.732000000000001L463.826 -13.224Q460.57800000000003 -12.702 458.8960000000001 -11.484Q457.21400000000006 -10.266 457.21400000000006 -7.946000000000001Q457.21400000000006 -5.684 458.7510000000001 -4.524Q460.28800000000007 -3.3640000000000003 463.30400000000003 -3.3640000000000003Q467.19000000000005 -3.3640000000000003 469.6550000000001 -5.133Q472.12000000000006 -6.902 472.12000000000006 -9.744L472.874 -5.626Q471.946 -2.668 469.249 -1.044Q466.552 0.5800000000000001 462.66600000000005 0.5800000000000001Z"/><path d="M485.576 0.0V-29.580000000000002H489.92600000000004V-22.040000000000003H490.216V0.0ZM490.216 -15.428 489.46200000000005 -22.446Q490.50600000000003 -26.216 493.17400000000004 -28.188000000000002Q495.84200000000004 -30.16 499.32200000000006 -30.16Q500.77200000000005 -30.16 501.29400000000004 -29.928V-25.462Q501.004 -25.578000000000003 500.482 -25.607000000000003Q499.96000000000004 -25.636000000000003 499.206 -25.636000000000003Q494.79800000000006 -25.636000000000003 492.50700000000006 -22.997Q490.216 -20.358 490.216 -15.428Z"/><path d="M501.23600000000005 0.0V-5.974H507.21000000000004V0.0Z"/></g></g><g fill="#F5F4EF" transform="translate(24 337) scale(1)"><g transform="translate(-2.90000 42.34000)"><path d="M22.678 0.5800000000000001Q18.386 0.5800000000000001 14.761 -1.0150000000000001Q11.136000000000001 -2.6100000000000003 8.468 -5.481Q5.800000000000001 -8.352 4.3500000000000005 -12.267000000000001Q2.9000000000000004 -16.182000000000002 2.9000000000000004 -20.880000000000003Q2.9000000000000004 -25.578000000000003 4.3500000000000005 -29.493000000000002Q5.800000000000001 -33.408 8.439 -36.278999999999996Q11.078000000000001 -39.15 14.703 -40.745000000000005Q18.328 -42.34 22.62 -42.34Q27.318 -42.34 31.059000000000005 -40.426Q34.800000000000004 -38.512 37.20700000000001 -35.032000000000004Q39.614000000000004 -31.552000000000003 40.194 -26.912000000000003H35.438Q34.742000000000004 -32.074000000000005 31.349000000000004 -35.06100000000001Q27.956000000000003 -38.048 22.678 -38.048Q18.212 -38.048 14.847999999999999 -35.873000000000005Q11.484 -33.698 9.628 -29.841Q7.772 -25.984 7.772 -20.880000000000003Q7.772 -15.776000000000002 9.628 -11.919Q11.484 -8.062000000000001 14.847999999999999 -5.8870000000000005Q18.212 -3.712 22.62 -3.712Q28.014000000000003 -3.712 31.465000000000003 -6.728Q34.916000000000004 -9.744 35.554 -14.848H40.31Q39.730000000000004 -10.208 37.32300000000001 -6.728Q34.916000000000004 -3.248 31.175000000000004 -1.334Q27.434 0.5800000000000001 22.678 0.5800000000000001Z"/><path d="M47.618 0.0V-41.760000000000005H52.258V0.0Z"/><path d="M79.69200000000001 0.0Q79.46000000000001 -0.9860000000000001 79.373 -2.262Q79.286 -3.5380000000000003 79.286 -5.510000000000001H78.99600000000001V-19.662000000000003Q78.99600000000001 -23.026 77.459 -24.621000000000002Q75.922 -26.216 72.5 -26.216Q69.13600000000001 -26.216 67.135 -24.853Q65.134 -23.490000000000002 64.902 -20.996000000000002H60.43600000000001Q60.726000000000006 -25.288 64.03200000000001 -27.724Q67.33800000000001 -30.16 72.674 -30.16Q78.184 -30.16 80.852 -27.55Q83.52000000000001 -24.94 83.52000000000001 -19.720000000000002V-5.510000000000001Q83.52000000000001 -4.234 83.69400000000002 -2.871Q83.86800000000001 -1.508 84.158 0.0ZM69.542 0.5800000000000001Q64.96000000000001 0.5800000000000001 62.263000000000005 -1.653Q59.566 -3.886 59.566 -7.772Q59.566 -11.658000000000001 62.234 -13.804000000000002Q64.902 -15.950000000000001 70.006 -16.82L80.33000000000001 -18.560000000000002V-14.732000000000001L70.702 -13.224Q67.45400000000001 -12.702 65.772 -11.484Q64.09 -10.266 64.09 -7.946000000000001Q64.09 -5.684 65.62700000000001 -4.524Q67.164 -3.3640000000000003 70.18 -3.3640000000000003Q74.066 -3.3640000000000003 76.531 -5.133Q78.99600000000001 -6.902 78.99600000000001 -9.744L79.75 -5.626Q78.822 -2.668 76.125 -1.044Q73.428 0.5800000000000001 69.542 0.5800000000000001Z"/><path d="M92.452 0.0V-29.580000000000002H96.80199999999999V-22.040000000000003H97.092V0.0ZM97.092 -15.428 96.338 -22.446Q97.382 -26.216 100.05000000000001 -28.188000000000002Q102.718 -30.16 106.198 -30.16Q107.648 -30.16 108.17 -29.928V-25.462Q107.88 -25.578000000000003 107.358 -25.607000000000003Q106.836 -25.636000000000003 106.082 -25.636000000000003Q101.67399999999999 -25.636000000000003 99.383 -22.997Q97.092 -20.358 97.092 -15.428Z"/><path d="M113.68 0.0V-29.580000000000002H118.32000000000001V0.0ZM113.33200000000001 -36.308V-41.760000000000005H118.668V-36.308Z"/><path d="M149.002 0.0V-6.902L149.58200000000002 -6.728000000000001Q148.48000000000002 -3.3640000000000003 145.55100000000002 -1.3920000000000001Q142.622 0.5800000000000001 138.562 0.5800000000000001Q134.56 0.5800000000000001 131.573 -1.334Q128.586 -3.248 126.933 -6.67Q125.28 -10.092 125.28 -14.674000000000001Q125.28 -19.314 126.962 -22.794Q128.644 -26.274 131.66000000000003 -28.188000000000002Q134.67600000000002 -30.102 138.73600000000002 -30.102Q142.912 -30.102 145.75400000000002 -28.072000000000003Q148.596 -26.042 149.64000000000001 -22.330000000000002L148.71200000000002 -22.214000000000002V-41.760000000000005H153.352V0.0ZM139.43200000000002 -3.48Q143.89800000000002 -3.48 146.42100000000002 -6.525Q148.94400000000002 -9.57 148.94400000000002 -14.848Q148.94400000000002 -20.01 146.392 -23.026000000000003Q143.84 -26.042 139.43200000000002 -26.042Q135.024 -26.042 132.53 -23.026000000000003Q130.036 -20.01 130.036 -14.674000000000001Q130.036 -9.454 132.53 -6.4670000000000005Q135.024 -3.48 139.43200000000002 -3.48Z"/><path d="M180.78600000000003 0.0Q180.55400000000003 -0.9860000000000001 180.46700000000004 -2.262Q180.38000000000002 -3.5380000000000003 180.38000000000002 -5.510000000000001H180.09000000000003V-19.662000000000003Q180.09000000000003 -23.026 178.55300000000003 -24.621000000000002Q177.01600000000002 -26.216 173.59400000000002 -26.216Q170.23000000000002 -26.216 168.229 -24.853Q166.228 -23.490000000000002 165.996 -20.996000000000002H161.53000000000003Q161.82000000000002 -25.288 165.12600000000003 -27.724Q168.43200000000002 -30.16 173.76800000000003 -30.16Q179.27800000000002 -30.16 181.94600000000003 -27.55Q184.61400000000003 -24.94 184.61400000000003 -19.720000000000002V-5.510000000000001Q184.61400000000003 -4.234 184.788 -2.871Q184.96200000000002 -1.508 185.252 0.0ZM170.63600000000002 0.5800000000000001Q166.05400000000003 0.5800000000000001 163.35700000000003 -1.653Q160.66000000000003 -3.886 160.66000000000003 -7.772Q160.66000000000003 -11.658000000000001 163.32800000000003 -13.804000000000002Q165.996 -15.950000000000001 171.10000000000002 -16.82L181.42400000000004 -18.560000000000002V-14.732000000000001L171.79600000000002 -13.224Q168.54800000000003 -12.702 166.86600000000004 -11.484Q165.18400000000003 -10.266 165.18400000000003 -7.946000000000001Q165.18400000000003 -5.684 166.721 -4.524Q168.258 -3.3640000000000003 171.27400000000003 -3.3640000000000003Q175.16000000000003 -3.3640000000000003 177.62500000000003 -5.133Q180.09000000000003 -6.902 180.09000000000003 -9.744L180.84400000000002 -5.626Q179.91600000000003 -2.668 177.21900000000002 -1.044Q174.52200000000002 0.5800000000000001 170.63600000000002 0.5800000000000001Z"/><path d="M215.06400000000002 0.0V-6.902L215.644 -6.728000000000001Q214.542 -3.3640000000000003 211.613 -1.3920000000000001Q208.684 0.5800000000000001 204.624 0.5800000000000001Q200.622 0.5800000000000001 197.635 -1.334Q194.648 -3.248 192.995 -6.67Q191.342 -10.092 191.342 -14.674000000000001Q191.342 -19.314 193.024 -22.794Q194.70600000000002 -26.274 197.722 -28.188000000000002Q200.738 -30.102 204.798 -30.102Q208.97400000000002 -30.102 211.81600000000003 -28.072000000000003Q214.65800000000002 -26.042 215.702 -22.330000000000002L214.774 -22.214000000000002V-41.760000000000005H219.41400000000002V0.0ZM205.494 -3.48Q209.96 -3.48 212.483 -6.525Q215.006 -9.57 215.006 -14.848Q215.006 -20.01 212.454 -23.026000000000003Q209.90200000000002 -26.042 205.494 -26.042Q201.086 -26.042 198.592 -23.026000000000003Q196.098 -20.01 196.098 -14.674000000000001Q196.098 -9.454 198.592 -6.4670000000000005Q201.086 -3.48 205.494 -3.48Z"/><path d=""/><path d="M254.91000000000003 0.522Q250.73400000000004 0.522 247.89200000000002 -1.508Q245.05 -3.5380000000000003 244.00600000000003 -7.25L244.93400000000003 -7.3660000000000005V11.89H240.29400000000004V-29.580000000000002H244.64400000000003V-22.678L244.00600000000003 -22.852Q245.10800000000003 -26.274 248.18200000000002 -28.217Q251.25600000000003 -30.16 255.31600000000003 -30.16Q259.26000000000005 -30.16 262.1890000000001 -28.246000000000002Q265.11800000000005 -26.332 266.7420000000001 -22.91Q268.36600000000004 -19.488 268.36600000000004 -14.906Q268.36600000000004 -10.266 266.684 -6.786Q265.002 -3.306 261.986 -1.392Q258.97 0.522 254.91000000000003 0.522ZM254.21400000000003 -3.5380000000000003Q258.622 -3.5380000000000003 261.116 -6.583Q263.61 -9.628 263.61 -14.906Q263.61 -20.126 261.116 -23.113Q258.622 -26.1 254.21400000000003 -26.1Q249.80600000000004 -26.1 247.25400000000002 -23.055Q244.70200000000003 -20.01 244.70200000000003 -14.732000000000001Q244.70200000000003 -9.57 247.25400000000002 -6.554Q249.80600000000004 -3.5380000000000003 254.21400000000003 -3.5380000000000003Z"/><path d="M293.712 0.0Q293.48 -0.9860000000000001 293.39300000000003 -2.262Q293.306 -3.5380000000000003 293.306 -5.510000000000001H293.016V-19.662000000000003Q293.016 -23.026 291.47900000000004 -24.621000000000002Q289.942 -26.216 286.52 -26.216Q283.156 -26.216 281.155 -24.853Q279.154 -23.490000000000002 278.922 -20.996000000000002H274.456Q274.746 -25.288 278.052 -27.724Q281.358 -30.16 286.694 -30.16Q292.204 -30.16 294.872 -27.55Q297.54 -24.94 297.54 -19.720000000000002V-5.510000000000001Q297.54 -4.234 297.71400000000006 -2.871Q297.88800000000003 -1.508 298.178 0.0ZM283.562 0.5800000000000001Q278.98 0.5800000000000001 276.283 -1.653Q273.586 -3.886 273.586 -7.772Q273.586 -11.658000000000001 276.254 -13.804000000000002Q278.922 -15.950000000000001 284.026 -16.82L294.35 -18.560000000000002V-14.732000000000001L284.722 -13.224Q281.474 -12.702 279.79200000000003 -11.484Q278.11 -10.266 278.11 -7.946000000000001Q278.11 -5.684 279.64700000000005 -4.524Q281.184 -3.3640000000000003 284.2 -3.3640000000000003Q288.086 -3.3640000000000003 290.55100000000004 -5.133Q293.016 -6.902 293.016 -9.744L293.77 -5.626Q292.842 -2.668 290.145 -1.044Q287.448 0.5800000000000001 283.562 0.5800000000000001Z"/><path d="M306.472 0.0V-29.580000000000002H310.822V-22.040000000000003H311.11199999999997V0.0ZM311.11199999999997 -15.428 310.358 -22.446Q311.402 -26.216 314.07 -28.188000000000002Q316.738 -30.16 320.218 -30.16Q321.668 -30.16 322.19 -29.928V-25.462Q321.9 -25.578000000000003 321.378 -25.607000000000003Q320.856 -25.636000000000003 320.102 -25.636000000000003Q315.694 -25.636000000000003 313.403 -22.997Q311.11199999999997 -20.358 311.11199999999997 -15.428Z"/><path d="M345.506 0.0Q345.274 -0.9860000000000001 345.187 -2.262Q345.09999999999997 -3.5380000000000003 345.09999999999997 -5.510000000000001H344.81V-19.662000000000003Q344.81 -23.026 343.273 -24.621000000000002Q341.736 -26.216 338.31399999999996 -26.216Q334.95 -26.216 332.94899999999996 -24.853Q330.948 -23.490000000000002 330.716 -20.996000000000002H326.25Q326.53999999999996 -25.288 329.846 -27.724Q333.152 -30.16 338.488 -30.16Q343.998 -30.16 346.666 -27.55Q349.334 -24.94 349.334 -19.720000000000002V-5.510000000000001Q349.334 -4.234 349.50800000000004 -2.871Q349.682 -1.508 349.972 0.0ZM335.356 0.5800000000000001Q330.774 0.5800000000000001 328.077 -1.653Q325.38 -3.886 325.38 -7.772Q325.38 -11.658000000000001 328.048 -13.804000000000002Q330.716 -15.950000000000001 335.82 -16.82L346.144 -18.560000000000002V-14.732000000000001L336.51599999999996 -13.224Q333.268 -12.702 331.586 -11.484Q329.904 -10.266 329.904 -7.946000000000001Q329.904 -5.684 331.44100000000003 -4.524Q332.978 -3.3640000000000003 335.99399999999997 -3.3640000000000003Q339.88 -3.3640000000000003 342.345 -5.133Q344.81 -6.902 344.81 -9.744L345.56399999999996 -5.626Q344.63599999999997 -2.668 341.93899999999996 -1.044Q339.24199999999996 0.5800000000000001 335.356 0.5800000000000001Z"/><path d=""/><path d="M384.48199999999997 0.522Q380.306 0.522 377.464 -1.508Q374.622 -3.5380000000000003 373.578 -7.25L374.506 -7.3660000000000005V11.89H369.866V-29.580000000000002H374.216V-22.678L373.578 -22.852Q374.68 -26.274 377.754 -28.217Q380.828 -30.16 384.888 -30.16Q388.832 -30.16 391.76099999999997 -28.246000000000002Q394.69 -26.332 396.31399999999996 -22.91Q397.938 -19.488 397.938 -14.906Q397.938 -10.266 396.256 -6.786Q394.574 -3.306 391.558 -1.392Q388.54200000000003 0.522 384.48199999999997 0.522ZM383.786 -3.5380000000000003Q388.194 -3.5380000000000003 390.688 -6.583Q393.182 -9.628 393.182 -14.906Q393.182 -20.126 390.688 -23.113Q388.194 -26.1 383.786 -26.1Q379.378 -26.1 376.826 -23.055Q374.274 -20.01 374.274 -14.732000000000001Q374.274 -9.57 376.826 -6.554Q379.378 -3.5380000000000003 383.786 -3.5380000000000003Z"/><path d="M405.014 0.0V-29.580000000000002H409.36400000000003V-22.040000000000003H409.654V0.0ZM409.654 -15.428 408.90000000000003 -22.446Q409.944 -26.216 412.612 -28.188000000000002Q415.28000000000003 -30.16 418.76000000000005 -30.16Q420.21000000000004 -30.16 420.732 -29.928V-25.462Q420.442 -25.578000000000003 419.92 -25.607000000000003Q419.398 -25.636000000000003 418.644 -25.636000000000003Q414.23600000000005 -25.636000000000003 411.94500000000005 -22.997Q409.654 -20.358 409.654 -15.428Z"/><path d="M439.06 0.5800000000000001Q434.71000000000004 0.5800000000000001 431.404 -1.45Q428.098 -3.48 426.271 -6.989000000000001Q424.444 -10.498000000000001 424.444 -14.906Q424.444 -19.372 426.3 -22.794Q428.156 -26.216 431.433 -28.188000000000002Q434.71000000000004 -30.16 439.06 -30.16Q443.468 -30.16 446.745 -28.188000000000002Q450.02200000000005 -26.216 451.84900000000005 -22.794Q453.67600000000004 -19.372 453.67600000000004 -14.906Q453.67600000000004 -10.498000000000001 451.84900000000005 -6.989000000000001Q450.02200000000005 -3.48 446.745 -1.45Q443.468 0.5800000000000001 439.06 0.5800000000000001ZM439.06 -3.3640000000000003Q442.076 -3.3640000000000003 444.28000000000003 -4.843Q446.48400000000004 -6.322 447.702 -8.932Q448.92 -11.542 448.92 -14.964Q448.92 -20.068 446.223 -23.142000000000003Q443.526 -26.216 439.06 -26.216Q434.65200000000004 -26.216 431.92600000000004 -23.142000000000003Q429.20000000000005 -20.068 429.20000000000005 -14.964Q429.20000000000005 -11.542 430.418 -8.932Q431.636 -6.322 433.869 -4.843Q436.10200000000003 -3.3640000000000003 439.06 -3.3640000000000003Z"/><path d="M482.15400000000005 0.0V-6.902L482.73400000000004 -6.728000000000001Q481.63200000000006 -3.3640000000000003 478.7030000000001 -1.3920000000000001Q475.77400000000006 0.5800000000000001 471.71400000000006 0.5800000000000001Q467.71200000000005 0.5800000000000001 464.725 -1.334Q461.73800000000006 -3.248 460.08500000000004 -6.67Q458.432 -10.092 458.432 -14.674000000000001Q458.432 -19.314 460.11400000000003 -22.794Q461.79600000000005 -26.274 464.812 -28.188000000000002Q467.82800000000003 -30.102 471.88800000000003 -30.102Q476.064 -30.102 478.90600000000006 -28.072000000000003Q481.74800000000005 -26.042 482.79200000000003 -22.330000000000002L481.86400000000003 -22.214000000000002V-41.760000000000005H486.504V0.0ZM472.58400000000006 -3.48Q477.05000000000007 -3.48 479.5730000000001 -6.525Q482.09600000000006 -9.57 482.09600000000006 -14.848Q482.09600000000006 -20.01 479.54400000000004 -23.026000000000003Q476.992 -26.042 472.58400000000006 -26.042Q468.17600000000004 -26.042 465.682 -23.026000000000003Q463.18800000000005 -20.01 463.18800000000005 -14.674000000000001Q463.18800000000005 -9.454 465.682 -6.4670000000000005Q468.17600000000004 -3.48 472.58400000000006 -3.48Z"/><path d="M505.41200000000003 0.5800000000000001Q502.512 0.5800000000000001 500.25 -0.609Q497.988 -1.798 496.712 -3.9730000000000003Q495.436 -6.148000000000001 495.436 -8.99V-29.580000000000002H500.076V-10.208Q500.076 -6.844 501.72900000000004 -5.162Q503.382 -3.48 506.456 -3.48Q509.24 -3.48 511.386 -4.756Q513.532 -6.032 514.779 -8.323Q516.026 -10.614 516.026 -13.572000000000001L516.78 -6.554Q515.33 -3.248 512.2560000000001 -1.334Q509.182 0.5800000000000001 505.41200000000003 0.5800000000000001ZM516.316 0.0V-6.96H516.026V-29.580000000000002H520.666V0.0Z"/><path d="M541.546 0.5800000000000001Q537.4860000000001 0.5800000000000001 534.325 -1.421Q531.1640000000001 -3.422 529.3370000000001 -6.931000000000001Q527.5100000000001 -10.440000000000001 527.5100000000001 -14.906Q527.5100000000001 -19.372 529.3370000000001 -22.794Q531.1640000000001 -26.216 534.325 -28.188000000000002Q537.4860000000001 -30.16 541.488 -30.16Q544.7940000000001 -30.16 547.433 -28.884Q550.072 -27.608 551.783 -25.259Q553.494 -22.91 553.9580000000001 -19.778000000000002H549.666Q549.086 -22.62 546.998 -24.418Q544.9100000000001 -26.216 541.604 -26.216Q538.7620000000001 -26.216 536.674 -24.824Q534.586 -23.432000000000002 533.426 -20.880000000000003Q532.2660000000001 -18.328 532.2660000000001 -14.906Q532.2660000000001 -11.484 533.426 -8.874Q534.586 -6.264 536.703 -4.814Q538.82 -3.3640000000000003 541.662 -3.3640000000000003Q544.8520000000001 -3.3640000000000003 546.998 -5.133Q549.144 -6.902 549.724 -9.744H554.0160000000001Q553.494 -6.67 551.725 -4.321Q549.956 -1.9720000000000002 547.346 -0.6960000000000001Q544.7360000000001 0.5800000000000001 541.546 0.5800000000000001Z"/><path d="M560.5120000000001 0.0V-29.580000000000002H565.152V0.0ZM560.1640000000001 -36.308V-41.760000000000005H565.5000000000001V-36.308Z"/><path d="M574.432 0.0V-29.580000000000002H578.782V-22.040000000000003H579.072V0.0ZM579.072 -15.428 578.318 -22.446Q579.3620000000001 -26.216 582.03 -28.188000000000002Q584.698 -30.16 588.178 -30.16Q589.628 -30.16 590.15 -29.928V-25.462Q589.86 -25.578000000000003 589.338 -25.607000000000003Q588.816 -25.636000000000003 588.062 -25.636000000000003Q583.654 -25.636000000000003 581.363 -22.997Q579.072 -20.358 579.072 -15.428Z"/><path d="M590.0920000000001 0.0V-5.974H596.066V0.0Z"/></g></g></svg>
